<svg width="625" height="615" viewBox="0 0 625 615" fill="none" xmlns="http://www.w3.org/2000/svg">
<g id="program-logos">
<g id="undraw_static_assets_rpm6 1">
<g id="javascript">
<path id="Vector" d="M260 393H419.685V552.673H260V393Z" fill="#F7DF1E"/>
<path id="Vector_2" d="M301.995 526.436L314.215 519.039C316.575 523.22 318.717 526.757 323.863 526.757C328.796 526.757 331.903 524.828 331.903 517.328V466.304H346.908V517.534C346.908 533.074 337.806 540.149 324.506 540.149C312.504 540.149 305.538 533.929 302.001 526.43L301.995 526.436ZM355.057 524.822L367.271 517.747C370.487 523.001 374.668 526.848 382.064 526.848C388.284 526.848 392.246 523.742 392.246 519.452C392.246 514.306 388.175 512.486 381.324 509.482L377.574 507.874C366.75 503.269 359.565 497.48 359.565 485.26C359.565 474.004 368.139 465.431 381.537 465.431C391.075 465.431 397.92 468.756 402.865 477.433L391.184 484.938C388.612 480.327 385.826 478.507 381.537 478.507C377.144 478.507 374.352 481.292 374.352 484.938C374.352 489.441 377.138 491.261 383.569 494.04L387.319 495.648C400.061 501.109 407.258 506.685 407.258 519.227C407.258 532.734 396.645 540.131 382.38 540.131C368.424 540.131 359.444 533.456 355.075 524.803" fill="white"/>
</g>
<g id="HTML5">
<path id="Vector_3" d="M578.495 237.154L569.248 340.731L527.684 352.259L486.235 340.731L477 237.154H578.495Z" fill="#E44D26"/>
<path id="Vector_4" d="M527.744 343.449L561.329 334.141L569.217 245.625H527.744V343.449Z" fill="#F16529"/>
<path id="Vector_5" d="M509.772 271.037H527.745V258.331H495.889L496.192 261.741L499.317 296.752H527.751V284.046H510.937L509.772 271.037ZM512.66 303.105H499.918L501.696 323.055L527.69 330.3H527.751V317.042H527.696L513.546 313.219L512.66 303.105Z" fill="#EBEBEB"/>
<path id="Vector_6" d="M486.448 209H492.904V215.377H498.807V209H505.264V228.32H498.807V221.851H492.904V228.32H486.448V209ZM513.752 215.408H508.067V209H525.894V215.408H520.208V228.32H513.758V215.408H513.752ZM528.728 209H535.463L539.607 215.79L543.745 209H550.48V228.32H544.049V218.745L539.607 225.613H539.498L535.05 218.745V228.32H528.728V209ZM553.69 209H560.146V221.93H569.248V228.314H553.708V209H553.69Z" fill="white"/>
<path id="Vector_7" d="M527.702 296.752H543.345L541.87 313.232L527.702 317.054V330.3L553.751 323.08L553.939 320.932L556.924 287.48L557.234 284.07H527.702V296.776V296.752ZM527.702 271.006V271.037H558.393L558.647 268.179L559.254 261.735L559.558 258.325H527.702V271V271.006Z" fill="white"/>
</g>
<g id="css3">
<path id="Vector_8" d="M138.539 382.938L88.2132 368.982L77 243.198H200.23L189.004 368.964L138.539 382.938Z" fill="#264DE4"/>
<path id="Vector_9" d="M179.393 360.96L188.986 253.489H138.624V372.24L179.393 360.96Z" fill="#2965F1"/>
<path id="Vector_10" d="M102.739 300.119L104.123 315.543H138.648V300.119H102.739ZM99.9603 268.895L101.362 284.319H138.642V268.895H99.9299H99.9603ZM138.642 340.185H138.575L121.392 335.543L120.293 323.237H104.778L106.938 347.46L138.539 356.252H138.612L138.642 340.185Z" fill="#EBEBEB"/>
<path id="Vector_11" d="M106.004 209H124.686V216.815H113.813V224.631H124.686V232.446H106.004V209ZM128.454 209H147.137V215.796H136.239V217.155H147.113V232.786H128.424V225.65H139.297V224.291H128.424V209H128.454ZM150.905 209H169.588V215.796H158.66V217.155H169.533V232.786H150.844V225.65H161.718V224.291H150.844V209H150.905Z" fill="white"/>
<path id="Vector_12" d="M174.424 300.119L177.209 268.895H138.539V284.319H160.28L158.878 300.095H138.539V315.519H157.537L155.717 335.543L138.539 340.197V356.246L170.164 347.478L170.395 344.869L174.035 304.251L174.411 300.107L174.424 300.119Z" fill="white"/>
</g>
</g>
<g id="react">
<path id="Vector_13" d="M394.308 94.7424C392.416 94.0939 390.509 93.4931 388.586 92.94C388.903 91.6449 389.198 90.3431 389.47 89.0347C393.802 68.0034 390.97 51.0605 381.297 45.4844C372.021 40.1343 356.852 45.7133 341.528 59.0427C340.018 60.3626 338.543 61.7168 337.102 63.1054C336.135 62.1803 335.153 61.2733 334.156 60.3845C318.103 46.1281 302.021 40.1228 292.345 45.7161C283.078 51.0805 280.329 67.0078 284.234 86.9404C284.615 88.9145 285.053 90.8772 285.547 92.8284C283.273 93.475 281.072 94.1645 278.967 94.8998C260.144 101.449 248.122 111.748 248.122 122.417C248.122 133.435 261.028 144.487 280.635 151.187C282.225 151.727 283.828 152.229 285.441 152.692C284.919 154.79 284.453 156.905 284.045 159.038C280.326 178.624 283.233 194.177 292.474 199.507C302.021 205.017 318.042 199.352 333.641 185.717C334.874 184.638 336.11 183.494 337.36 182.298C338.92 183.803 340.521 185.264 342.164 186.681C357.275 199.684 372.204 204.937 381.434 199.59C390.97 194.071 394.068 177.363 390.045 157.038C389.74 155.485 389.385 153.901 388.978 152.286C390.106 151.954 391.208 151.61 392.286 151.253C412.668 144.501 425.931 133.583 425.931 122.417C425.931 111.708 413.52 101.354 394.317 94.7424H394.308Z" fill="#53C1DE"/>
<path id="Vector_14" d="M389.888 144.043C388.915 144.367 387.92 144.676 386.901 144.979C384.416 137.274 381.408 129.749 377.898 122.454C381.274 115.257 384.165 107.842 386.552 100.258C388.369 100.785 390.137 101.34 391.836 101.926C408.29 107.588 418.327 115.962 418.327 122.417C418.327 129.283 407.486 138.213 389.888 144.043ZM382.587 158.514C384.366 167.501 384.618 175.626 383.445 181.975C382.387 187.682 380.258 191.487 377.626 193.012C372.021 196.254 360.039 192.04 347.116 180.919C345.634 179.643 344.143 178.284 342.644 176.842C348.032 170.877 353.011 164.555 357.547 157.919C365.65 157.233 373.696 155.99 381.628 154.2C381.991 155.665 382.312 157.095 382.593 158.491L382.587 158.514ZM308.738 192.457C303.262 194.391 298.902 194.446 296.267 192.926C290.66 189.691 288.328 177.191 291.509 160.454C291.891 158.476 292.323 156.509 292.805 154.552C300.705 156.248 308.71 157.407 316.766 158.022C321.435 164.635 326.534 170.933 332.03 176.876C330.926 177.946 329.796 178.987 328.642 179.998C321.745 186.029 314.829 190.297 308.738 192.457ZM283.092 144C274.421 141.036 267.262 137.185 262.353 132.985C257.944 129.209 255.718 125.458 255.718 122.417C255.718 115.942 265.371 107.683 281.467 102.072C283.489 101.368 285.529 100.727 287.587 100.147C289.978 107.814 292.873 115.315 296.253 122.6C292.831 129.99 289.9 137.598 287.481 145.374C286.005 144.952 284.542 144.494 283.092 144ZM291.69 85.4813C288.348 68.4039 290.565 55.5207 296.15 52.2935C302.098 48.8603 315.25 53.7584 329.115 66.0693C330.001 66.8561 330.891 67.68 331.781 68.5298C326.324 74.4367 321.266 80.6988 316.638 87.2751C308.658 87.9907 300.732 89.2226 292.911 90.9629C292.455 89.1472 292.048 87.3209 291.69 85.4841V85.4813ZM368.396 104.418C366.659 101.416 364.857 98.4521 362.992 95.5263C368.665 96.2444 374.098 97.1942 379.202 98.3615C377.564 103.557 375.665 108.667 373.512 113.671C371.869 110.552 370.164 107.468 368.396 104.418ZM337.108 73.9571C340.806 77.9882 344.298 82.2031 347.571 86.5856C340.569 86.2556 333.564 86.2556 326.557 86.5856C330.01 82.0309 333.549 77.7966 337.108 73.96V73.9571ZM305.637 104.47C303.892 107.497 302.218 110.562 300.616 113.665C298.404 108.421 296.513 103.262 294.968 98.2814C300.041 97.137 305.451 96.2186 311.087 95.512C309.195 98.4569 307.377 101.443 305.631 104.47H305.637ZM311.248 149.86C305.746 149.263 300.279 148.383 294.868 147.225C296.439 142.158 298.373 136.888 300.633 131.529C302.241 134.636 303.92 137.703 305.671 140.73C307.453 143.818 309.31 146.861 311.242 149.86H311.248ZM337.323 171.412C333.718 167.538 330.127 163.246 326.625 158.609C330.03 158.744 333.498 158.812 337.028 158.812C340.652 158.812 344.229 158.732 347.76 158.571C344.501 163.027 341.015 167.313 337.317 171.412H337.323ZM373.569 131.257C375.834 136.363 377.832 141.583 379.554 146.896C374.076 148.128 368.537 149.073 362.96 149.725C364.839 146.744 366.659 143.728 368.419 140.676C370.208 137.575 371.925 134.435 373.569 131.257ZM361.839 136.882C359.146 141.559 356.303 146.146 353.31 150.644C348.034 151.021 342.584 151.216 337.028 151.216C331.472 151.216 326.113 151.044 320.929 150.707C317.86 146.224 314.962 141.63 312.235 136.925C309.507 132.22 306.979 127.444 304.65 122.597C306.99 117.728 309.511 112.95 312.212 108.263C314.909 103.579 317.782 99.0014 320.832 94.5306C326.122 94.1301 331.541 93.9212 337.022 93.9212C342.504 93.9212 347.957 94.1329 353.241 94.5335C356.257 98.9909 359.118 103.55 361.824 108.212C364.531 112.874 367.086 117.629 369.489 122.48C367.114 127.366 364.567 132.163 361.847 136.871L361.839 136.882ZM377.509 52.0647C383.462 55.4979 385.777 69.3452 382.037 87.504C381.791 88.6846 381.524 89.8624 381.236 91.0373C373.404 89.2617 365.463 88.0068 357.464 87.2808C352.881 80.6987 347.86 74.4323 342.435 68.524C343.771 67.2385 345.133 65.9882 346.524 64.7733C359.65 53.3492 371.918 48.8403 377.509 52.0647Z" fill="white"/>
<path id="Vector_15" d="M337.022 106.538C340.163 106.538 343.233 107.47 345.844 109.214C348.455 110.959 350.491 113.439 351.692 116.34C352.894 119.242 353.209 122.435 352.596 125.515C351.983 128.595 350.471 131.424 348.25 133.645C346.03 135.865 343.2 137.378 340.12 137.99C337.04 138.603 333.847 138.289 330.946 137.087C328.044 135.885 325.565 133.85 323.82 131.239C322.075 128.627 321.144 125.557 321.144 122.417C321.143 120.332 321.554 118.267 322.352 116.34C323.15 114.413 324.319 112.663 325.794 111.188C327.268 109.714 329.019 108.544 330.945 107.746C332.872 106.948 334.937 106.538 337.022 106.538Z" fill="#53C1DE"/>
</g>
</g>
</svg>
